# xmcd
#
# Track frame offsets: 
#        150
#        19225
#        32215
#        49439
#        67021
#        82069
#        103081
#        113242
#        131367
#        148870
#        170481
#        188905
#
# Disc length: 2788 seconds
#
# Revision: 0
# Processed by: cddbd v1.5.2PL0 Copyright (c) Steve Scherf et al.
# Submitted via: ExactAudioCopy v0.95b4
#
DISCID=b40ae20c
DTITLE=Whitey Johnson - Whitey Johnson
DYEAR=1900
DGENRE=Blues
TTITLE0=Use The Blues
TTITLE1=Worry Be Gone
TTITLE2=Memphis Women And Chicken
TTITLE3=Better Off With The Blues
TTITLE4=Life Is Like That
TTITLE5=Leap Of Faith
TTITLE6=Devil Goin' Fishin'
TTITLE7=Jacksboro Highway
TTITLE8=Lie No Better
TTITLE9=Miss Fortune
TTITLE10=Ain't Lost Nothin'
TTITLE11=Blues In Black And White
EXTD=
EXTT0=
EXTT1=
EXTT2=
EXTT3=
EXTT4=
EXTT5=
EXTT6=
EXTT7=
EXTT8=
EXTT9=
EXTT10=
EXTT11=
PLAYORDER=
